# xmcd CD database file
#
# Track frame offsets:
#	150
#	18851
#	32152
#	36282
#	56201
#	73250
#	95598
#	109263
#	133115
#	137595
#	158048
#	180797
#	193637
#	204970
#	218031
#	225662
#	251978
#	268914
#	275913
#	300523
#
# Disc length: 4327 seconds
#
# Revision: 2
# Processed by: cddbd v1.5.2PL0 Copyright (c) Steve Scherf et al.
# Submitted via: CDex 1.51
#
DISCID=2a10e514
DTITLE=Art Tatum - Live Performances, 1934-1956, vol. 8
DYEAR=1956
DGENRE=Jazz
TTITLE0=Would You Like To Take A Walk
TTITLE1=Soft Winds
TTITLE2=Flying Home
TTITLE3=I Cover The Waterfront
TTITLE4=Soft Winds
TTITLE5=Tenderly
TTITLE6=Tea For Two
TTITLE7=Wrap Your Troubles In Dreams
TTITLE8=Body And Soul
TTITLE9=Sweet Lorraine
TTITLE10=September Song
TTITLE11=My Heart Stood Still
TTITLE12=Don't Blame Me
TTITLE13=Willow Weep For Me
TTITLE14=Flying Home
TTITLE15=Moon Song
TTITLE16=Just One Of Those Things
TTITLE17=Flying Home
TTITLE18=Would You Like To Take A Walk
TTITLE19=You Go To My Head
EXTD=YEAR: 1956
EXTT0=
EXTT1=
EXTT2=
EXTT3=
EXTT4=
EXTT5=
EXTT6=
EXTT7=
EXTT8=
EXTT9=
EXTT10=
EXTT11=
EXTT12=
EXTT13=
EXTT14=
EXTT15=
EXTT16=
EXTT17=
EXTT18=
EXTT19=
PLAYORDER=
